# xmcd CD database file
#
# Track frame offsets:
#	150
#	7720
#	27400
#	46238
#	68423
#	97618
#	115460
#	132873
#	153693
#	171268
#	184130
#	206575
#	222943
#	243413
#	267080
#	292228
#
# Disc length: 4342 seconds
#
# Revision: 1
# Processed by: cddbd v1.5.1PL2 Copyright (c) Steve Scherf et al.
# Submitted via: CDex 1.51
#
DISCID=de10f410
DTITLE=THC!! - TIME HAS COME!!
DYEAR=2005
DGENRE=Japanese Rock
TTITLE0=Intro-Loading Complete-
TTITLE1=新世界
TTITLE2=JUMP!!
TTITLE3=雪
TTITLE4=鎌倉日和
TTITLE5=turn out
TTITLE6=夏の夕暮れ(album mix)
TTITLE7=☆Starlinght☆
TTITLE8=SIZE DOWN↓↓BABY!!
TTITLE9=JOHNNY DE GO→
TTITLE10=オメデトウ(album mix)
TTITLE11=D.O.B(re-born)
TTITLE12=TIMEシャワーに射たれて・・・
TTITLE13=communication
TTITLE14=・・・そして朝日
TTITLE15=雪-A new era of the tundra area mix-
EXTD=YEAR: 2005
EXTT0=
EXTT1=
EXTT2=
EXTT3=
EXTT4=
EXTT5=
EXTT6=
EXTT7=
EXTT8=
EXTT9=
EXTT10=
EXTT11=
EXTT12=
EXTT13=
EXTT14=
EXTT15=
PLAYORDER=
